<svg width="25" height="44" viewBox="0 0 25 44" fill="none" xmlns="http://www.w3.org/2000/svg">
<path d="M20.0312 42.475L1.07499 23.575C0.849987 23.35 0.690987 23.1063 0.597987 22.8438C0.503487 22.5813 0.456238 22.3 0.456238 22C0.456238 21.7 0.503487 21.4188 0.597987 21.1563C0.690987 20.8938 0.849987 20.65 1.07499 20.425L20.0312 1.46877C20.5562 0.943774 21.2125 0.681274 22 0.681274C22.7875 0.681274 23.4625 0.962524 24.025 1.52502C24.5875 2.08752 24.8687 2.74377 24.8687 3.49377C24.8687 4.24377 24.5875 4.90002 24.025 5.46252L7.48749 22L24.025 38.5375C24.55 39.0625 24.8125 39.709 24.8125 40.477C24.8125 41.2465 24.5312 41.9125 23.9687 42.475C23.4062 43.0375 22.75 43.3188 22 43.3188C21.25 43.3188 20.5937 43.0375 20.0312 42.475Z" fill="white"/>
</svg>
