<svg width="79" height="79" viewBox="0 0 79 79" fill="none" xmlns="http://www.w3.org/2000/svg">
<path d="M26.6213 56.9458L11.4797 41.8041C11.1505 41.475 10.9179 41.1184 10.7818 40.7344C10.6436 40.3503 10.5745 39.9389 10.5745 39.5C10.5745 39.0611 10.6436 38.6496 10.7818 38.2656C10.9179 37.8816 11.1505 37.525 11.4797 37.1958L26.7036 21.9719C27.3071 21.3684 28.0477 21.0667 28.9255 21.0667C29.8033 21.0667 30.5713 21.3958 31.2297 22.0541C31.8331 22.6576 32.1349 23.4257 32.1349 24.3583C32.1349 25.291 31.8331 26.059 31.2297 26.6625L21.6838 36.2083H65.1338C66.0665 36.2083 66.8477 36.5232 67.4775 37.153C68.1095 37.785 68.4255 38.5673 68.4255 39.5C68.4255 40.4326 68.1095 41.2138 67.4775 41.8436C66.8477 42.4756 66.0665 42.7916 65.1338 42.7916H21.6838L31.312 52.4198C31.9154 53.0232 32.2172 53.7639 32.2172 54.6417C32.2172 55.5194 31.888 56.2875 31.2297 56.9458C30.6262 57.5493 29.8581 57.851 28.9255 57.851C27.9929 57.851 27.2248 57.5493 26.6213 56.9458Z" fill="black"/>
</svg>
