<svg width="147" height="147" viewBox="0 0 147 147" fill="none" xmlns="http://www.w3.org/2000/svg">
<path d="M66.2083 109.958H80.7916V66.2083H66.2083V109.958ZM73.4999 51.6249C75.5659 51.6249 77.2989 50.9249 78.6989 49.5249C80.094 48.1298 80.7916 46.3992 80.7916 44.3333C80.7916 42.2673 80.094 40.5343 78.6989 39.1343C77.2989 37.7392 75.5659 37.0416 73.4999 37.0416C71.4339 37.0416 69.7034 37.7392 68.3083 39.1343C66.9082 40.5343 66.2083 42.2673 66.2083 44.3333C66.2083 46.3992 66.9082 48.1298 68.3083 49.5249C69.7034 50.9249 71.4339 51.6249 73.4999 51.6249ZM73.4999 146.417C63.4131 146.417 53.9339 144.501 45.0624 140.671C36.1909 136.845 28.4739 131.651 21.9114 125.088C15.3489 118.526 10.1548 110.809 6.32909 101.937C2.49853 93.0659 0.583252 83.5867 0.583252 73.4999C0.583252 63.4131 2.49853 53.9339 6.32909 45.0624C10.1548 36.1909 15.3489 28.4739 21.9114 21.9114C28.4739 15.3489 36.1909 10.1523 45.0624 6.32179C53.9339 2.4961 63.4131 0.583252 73.4999 0.583252C83.5867 0.583252 93.0659 2.4961 101.937 6.32179C110.809 10.1523 118.526 15.3489 125.088 21.9114C131.651 28.4739 136.845 36.1909 140.671 45.0624C144.501 53.9339 146.417 63.4131 146.417 73.4999C146.417 83.5867 144.501 93.0659 140.671 101.937C136.845 110.809 131.651 118.526 125.088 125.088C118.526 131.651 110.809 136.845 101.937 140.671C93.0659 144.501 83.5867 146.417 73.4999 146.417Z" fill="#37C3FF"/>
</svg>
