<svg width="22" height="22" viewBox="0 0 22 22" fill="none" xmlns="http://www.w3.org/2000/svg">
<path d="M12.5417 9.625V2.33333C12.5417 1.94656 12.388 1.57563 12.1145 1.30214C11.841 1.02865 11.4701 0.875 11.0833 0.875C10.6966 0.875 10.3256 1.02865 10.0521 1.30214C9.77865 1.57563 9.625 1.94656 9.625 2.33333V9.625H2.33333C1.94656 9.625 1.57563 9.77865 1.30214 10.0521C1.02865 10.3256 0.875 10.6966 0.875 11.0833C0.875 11.4701 1.02865 11.841 1.30214 12.1145C1.57563 12.388 1.94656 12.5417 2.33333 12.5417H9.625V19.8333C9.625 20.2201 9.77865 20.591 10.0521 20.8645C10.3256 21.138 10.6966 21.2917 11.0833 21.2917C11.4701 21.2917 11.841 21.138 12.1145 20.8645C12.388 20.591 12.5417 20.2201 12.5417 19.8333V12.5417H19.8333C20.2201 12.5417 20.591 12.388 20.8645 12.1145C21.138 11.841 21.2917 11.4701 21.2917 11.0833C21.2917 10.6966 21.138 10.3256 20.8645 10.0521C20.591 9.77865 20.2201 9.625 19.8333 9.625H12.5417Z" fill="white"/>
</svg>
