<svg width="158" height="162" viewBox="0 0 158 162" fill="none" xmlns="http://www.w3.org/2000/svg">
<rect width="158" height="162" rx="79" fill="white"/>
<path fill-rule="evenodd" clip-rule="evenodd" d="M79 41C79.8841 41 80.7319 41.3512 81.357 41.9763C81.9821 42.6014 82.3333 43.4493 82.3333 44.3333V77.6667H115.667C116.551 77.6667 117.399 78.0179 118.024 78.643C118.649 79.2681 119 80.1159 119 81C119 81.8841 118.649 82.7319 118.024 83.357C117.399 83.9821 116.551 84.3333 115.667 84.3333H82.3333V117.667C82.3333 118.551 81.9821 119.399 81.357 120.024C80.7319 120.649 79.8841 121 79 121C78.1159 121 77.2681 120.649 76.643 120.024C76.0179 119.399 75.6667 118.551 75.6667 117.667V84.3333H42.3333C41.4493 84.3333 40.6014 83.9821 39.9763 83.357C39.3512 82.7319 39 81.8841 39 81C39 80.1159 39.3512 79.2681 39.9763 78.643C40.6014 78.0179 41.4493 77.6667 42.3333 77.6667H75.6667V44.3333C75.6667 43.4493 76.0179 42.6014 76.643 41.9763C77.2681 41.3512 78.1159 41 79 41Z" fill="#2C2C2C"/>
</svg>
