<svg width="21" height="21" viewBox="0 0 21 21" fill="none" xmlns="http://www.w3.org/2000/svg">
<path d="M10.4363 20.4711C10.1542 20.4732 9.87843 20.3863 9.64731 20.2225C9.41618 20.0587 9.24116 19.8261 9.14653 19.557L7.15168 13.9938L1.65725 11.9741C1.39397 11.8751 1.16689 11.6969 1.00654 11.4635C0.846189 11.2301 0.76024 10.9525 0.76024 10.6682C0.76024 10.3838 0.846189 10.1063 1.00654 9.87283C1.16689 9.63939 1.39397 9.46122 1.65725 9.36227L7.15168 7.34249L9.14653 1.77938C9.24426 1.5128 9.42023 1.28289 9.65079 1.12053C9.88135 0.958178 10.1555 0.871154 10.4363 0.871154C10.7171 0.871154 10.9913 0.958178 11.2218 1.12053C11.4524 1.28289 11.6283 1.5128 11.7261 1.77938L13.7209 7.34249L19.2154 9.36228C19.4786 9.46123 19.7057 9.63939 19.8661 9.87283C20.0264 10.1063 20.1124 10.3838 20.1124 10.6682C20.1124 10.9525 20.0264 11.2301 19.8661 11.4635C19.7057 11.6969 19.4786 11.8751 19.2154 11.9741L13.7209 13.9938L11.7261 19.557C11.6314 19.8261 11.4564 20.0587 11.2253 20.2225C10.9942 20.3863 10.7184 20.4732 10.4363 20.4711Z" fill="#232323"/>
</svg>
