<svg width="32" height="40" viewBox="0 0 32 40" fill="none" xmlns="http://www.w3.org/2000/svg">
<path d="M31.0561 12.7842L31.0567 12.7868C33.0352 20.9334 28.2058 29.0815 20.2141 31.3642V29.7935C26.0201 27.8992 30.0712 22.5054 30.0712 16.3652C30.0712 8.57305 23.8099 2.31174 16.0177 2.31174C8.22557 2.31174 1.96427 8.57305 1.96427 16.3652C1.96427 23.6514 7.5874 29.6547 14.7411 30.2935L15.2856 30.3421V29.7954V25.8526V25.6455L15.1391 25.4991L8.73206 19.092C8.43447 18.7944 8.43447 18.3717 8.73206 18.0741C9.02965 17.7765 9.45234 17.7765 9.74994 18.0741L14.432 22.7562L15.2856 23.6098V22.4026V14.7634V14.5563L15.1391 14.4099L11.8124 11.0831C11.5148 10.7855 11.5148 10.3628 11.8124 10.0652C12.11 9.76764 12.5327 9.76764 12.8303 10.0652L16.7499 13.9848V17.4741V18.7072L17.6086 17.8224L21.6718 13.6361C21.9692 13.3408 22.3905 13.3416 22.6873 13.6384C22.9849 13.936 22.9849 14.3587 22.6873 14.6563L16.8963 20.4473L16.7499 20.5938V20.8009V38.4204C16.7499 38.6764 16.6667 38.8509 16.5575 38.9601C16.4482 39.0693 16.2737 39.1525 16.0177 39.1525C15.7617 39.1525 15.5872 39.0693 15.478 38.9601C15.3687 38.8509 15.2856 38.6764 15.2856 38.4204V32.2597V31.7956L14.8228 31.7611C6.8251 31.1643 0.5 24.4786 0.5 16.3652C0.5 7.76999 7.42251 0.847473 16.0177 0.847473C23.178 0.847473 29.3844 5.73923 31.0561 12.7842Z" fill="#F4F7F8" stroke="#F4F7F8"/>
</svg>
