<svg width="25" height="24" viewBox="0 0 25 24" fill="none" xmlns="http://www.w3.org/2000/svg">
<g clip-path="url(#clip0_381_834)">
<path d="M12.5 22.5C9.71523 22.5 7.04451 21.3938 5.07538 19.4246C3.10625 17.4555 2 14.7848 2 12C2 9.21523 3.10625 6.54451 5.07538 4.57538C7.04451 2.60625 9.71523 1.5 12.5 1.5C15.2848 1.5 17.9555 2.60625 19.9246 4.57538C21.8938 6.54451 23 9.21523 23 12C23 14.7848 21.8938 17.4555 19.9246 19.4246C17.9555 21.3938 15.2848 22.5 12.5 22.5ZM12.5 24C15.6826 24 18.7348 22.7357 20.9853 20.4853C23.2357 18.2348 24.5 15.1826 24.5 12C24.5 8.8174 23.2357 5.76516 20.9853 3.51472C18.7348 1.26428 15.6826 0 12.5 0C9.3174 0 6.26516 1.26428 4.01472 3.51472C1.76428 5.76516 0.5 8.8174 0.5 12C0.5 15.1826 1.76428 18.2348 4.01472 20.4853C6.26516 22.7357 9.3174 24 12.5 24V24Z" fill="#37C3FF"/>
<path d="M12.5 6C12.6989 6 12.8897 6.07902 13.0303 6.21967C13.171 6.36032 13.25 6.55109 13.25 6.75V11.25H17.75C17.9489 11.25 18.1397 11.329 18.2803 11.4697C18.421 11.6103 18.5 11.8011 18.5 12C18.5 12.1989 18.421 12.3897 18.2803 12.5303C18.1397 12.671 17.9489 12.75 17.75 12.75H13.25V17.25C13.25 17.4489 13.171 17.6397 13.0303 17.7803C12.8897 17.921 12.6989 18 12.5 18C12.3011 18 12.1103 17.921 11.9697 17.7803C11.829 17.6397 11.75 17.4489 11.75 17.25V12.75H7.25C7.05109 12.75 6.86032 12.671 6.71967 12.5303C6.57902 12.3897 6.5 12.1989 6.5 12C6.5 11.8011 6.57902 11.6103 6.71967 11.4697C6.86032 11.329 7.05109 11.25 7.25 11.25H11.75V6.75C11.75 6.55109 11.829 6.36032 11.9697 6.21967C12.1103 6.07902 12.3011 6 12.5 6V6Z" fill="#37C3FF"/>
</g>
<defs>
<clipPath id="clip0_381_834">
<rect width="24" height="24" fill="white" transform="translate(0.5)"/>
</clipPath>
</defs>
</svg>
