<svg width="130" height="95" viewBox="0 0 130 95" fill="none" xmlns="http://www.w3.org/2000/svg">
<path d="M1.42773 12.5931L2.38992 83.2915L5.24256 91.2279C5.24256 91.2279 39.6269 81.9009 65.7584 91.2279C74.9352 89.1081 103.334 84.0207 124.528 93.3477C127.071 89.1081 127.232 83.2915 127.232 83.2915L119.433 6.43728C119.433 6.43728 111.803 13.6445 89.7621 3.89356C72.3835 -3.73759 61.6257 11.7621 61.6257 11.7621C61.6257 11.7621 52.1734 4.13098 44.6709 3.80029C37.1684 3.46961 15.212 13.2375 1.42773 12.5931Z" fill="white"/>
<path d="M61.2822 10.5834C66.4322 2.55373 74.223 -0.575044 84.595 1.68039C90.063 2.88017 95.4037 4.64806 100.825 6.10222C105.585 7.37407 110.396 7.99728 115.237 6.57704C116.3 6.26332 117.335 5.84784 118.365 5.43237C120.242 4.67773 120.446 4.76252 120.671 6.70423C121.251 11.7917 121.807 16.9173 122.366 22.0216C123.909 35.7606 125.456 49.498 127.007 63.2341C127.775 70.0174 128.631 76.8006 129.275 83.5839C129.606 87.0815 127.834 90.1339 126.52 93.2246C126.024 94.3989 124.892 94.348 123.765 93.9834C114.977 91.1767 105.854 89.5542 96.6372 89.1588C87.1043 88.7095 77.669 89.2776 68.3736 91.639C67.1216 91.9555 65.8107 91.9555 64.5587 91.639C45.3998 86.772 26.2749 87.1832 7.16682 91.8933C4.86945 92.4572 4.7762 92.2749 3.48764 90.3374C1.36829 87.1493 1.01648 83.817 1.07582 80.0057C1.33438 62.789 1.22417 45.568 1.14788 28.3513C1.12668 23.1663 0.783349 17.9347 0.601085 12.6862C0.571414 11.8383 0.401866 10.8293 1.7964 11.0413C10.2017 12.3131 17.9373 9.76941 25.6263 6.92468C30.4542 5.14408 35.3372 3.47795 40.4787 2.9904C46.4129 2.4223 52.1521 3.16422 57.1537 6.74662C58.6712 7.83618 59.9216 9.30306 61.2822 10.5834ZM32.5524 78.8398C31.9462 54.9246 31.3613 31.2426 30.7636 7.33592C21.447 10.3036 12.6644 14.3735 3.12311 13.2331V82.7995C12.7088 80.1571 22.6093 78.8307 32.5524 78.8568V78.8398ZM118.674 7.55637C111.57 10.524 104.686 9.31154 97.8367 7.40375C93.6574 6.23788 89.5246 4.90243 85.3071 3.91462C80.4538 2.78266 75.5582 2.55797 70.7854 4.50391C65.1055 6.82717 62.2359 11.3804 62.6852 17.4642C63.1896 24.3237 63.7703 31.1833 64.3256 38.0428C64.4655 39.7853 64.6266 41.5277 64.8003 43.4906C67.9139 40.835 71.6679 39.0402 75.6895 38.2845C81.9628 37.0126 88.1132 37.9792 94.255 39.2808C100.397 40.5823 106.547 41.9093 112.753 42.9649C116.043 43.4642 119.402 43.237 122.595 42.2993C121.289 30.7084 119.992 19.2066 118.674 7.55637ZM66.5806 84.2113C68.6703 83.4906 70.1369 83.0539 71.5399 82.4646C71.9044 82.3078 72.1926 81.7015 72.2986 81.2521C72.8835 78.7847 73.4515 76.3131 73.8923 73.8202C73.9431 73.4907 73.9237 73.1542 73.8353 72.8327C73.7469 72.5112 73.5915 72.2121 73.3795 71.9548C72.4242 71.1444 71.6858 70.1089 71.2307 68.9417C70.7756 67.7745 70.6182 66.5123 70.7727 65.2691C70.9157 63.795 71.2184 62.3408 71.6755 60.9321C72.0612 59.7874 71.8705 58.8462 71.5568 57.7397C70.9019 55.5678 70.434 53.3438 70.1581 51.0921C69.9207 48.8409 71.0397 47.9167 73.1251 48.6374C75.2463 49.4229 77.2944 50.3933 79.2458 51.5373C80.0257 51.9612 80.6022 52.241 81.5432 52.0587C83.0818 51.7577 84.6883 51.8128 86.2524 51.6008C86.8706 51.4966 87.4533 51.2402 87.9478 50.8547C89.4356 49.6931 90.7496 48.2686 92.3434 47.285C94.2296 46.1149 96.1285 46.8611 96.7092 49.0147C97.2686 50.8853 97.4882 52.8409 97.3578 54.789C97.1286 56.438 97.4065 58.1178 98.1546 59.6051C98.4414 60.1528 98.6906 60.7194 98.9006 61.3009C99.6212 63.3867 100.537 65.7609 99.4432 67.7195C98.0699 70.2293 98.8159 72.2007 99.9688 74.3205C100.249 74.8922 100.484 75.4846 100.672 76.0926C101.52 78.4455 101.52 78.4837 104.085 78.4752C104.606 78.4752 105.356 78.2166 105.594 77.8308C106.017 77.1398 106.509 76.4403 105.822 75.3846C105.182 74.4053 104.58 72.8833 104.894 71.8955C105.7 69.3518 105.657 66.8801 105.221 64.3449C105.184 64.0951 105.173 63.8423 105.187 63.5902C105.31 62.1785 105.92 61.78 107.251 62.2675C107.71 62.3864 108.141 62.5922 108.522 62.8738C109.247 63.5843 110.129 64.113 111.097 64.4166C112.066 64.7202 113.092 64.7901 114.092 64.6204C114.67 64.5599 115.227 64.3732 115.724 64.0735C116.928 63.2256 118.076 61.8393 119.636 62.5685C121.332 63.3698 120.73 65.2267 120.785 66.7148C120.785 66.7699 120.764 66.8292 120.785 66.8844C120.929 67.7577 121.179 68.6098 121.077 69.4874C120.883 71.1832 121.561 73.2479 121.005 74.8631C120.717 76.135 120.412 76.9829 120.925 78.1318C121.243 78.8441 121.302 79.675 121.573 80.4169C121.692 80.798 121.956 81.1175 122.307 81.3072C123.841 81.8033 125.405 82.2018 127.16 82.6936C126.071 73.0783 125.011 63.7005 123.981 54.6152C122.243 54.6152 120.764 54.5346 119.297 54.6448C118.336 54.7089 117.394 54.9398 116.512 55.3274C114.351 56.3279 112.274 57.498 110.12 58.5113C109.889 58.5852 109.644 58.605 109.403 58.5689C109.163 58.5329 108.934 58.4421 108.734 58.3035C108.506 58.1128 108.522 57.4217 108.658 57.0317C109.048 55.9125 109.557 54.8314 110.044 53.6655C105.661 52.7074 102.415 50.3756 101.927 46.0343C101.601 43.2108 100.401 42.3884 98.0317 42.1679C97.7709 42.1203 97.5132 42.0566 97.2603 41.9771C92.0509 40.7392 86.8416 39.5097 81.433 39.6327C75.8294 39.7641 70.6455 41.0911 66.3178 44.9193C65.8646 45.27 65.5094 45.7316 65.2867 46.2597C65.0639 46.7877 64.9811 47.3643 65.0462 47.9337C65.6057 56.3915 66.1271 64.8536 66.534 73.32C66.7035 76.7879 66.5806 80.277 66.5806 84.2113ZM56.6705 9.1038C51.4866 4.01637 39.4275 4.11812 32.705 6.9374C33.304 30.8597 33.8989 54.8427 34.4894 78.8865L38.0839 79.0645C38.3255 76.2113 38.8807 73.5107 38.7112 70.8568C38.3212 64.6332 37.766 58.4095 36.9436 52.2325C35.778 43.533 34.9557 34.9395 37.1217 26.223C39.7242 15.815 47.2861 8.60778 56.6705 9.1038ZM42.5684 78.984L64.2875 83.7577C64.2875 79.5182 64.3256 74.9776 64.2366 70.4371C64.2366 69.9368 63.5838 69.3348 63.0921 68.9702C60.0064 66.6681 56.7638 64.5569 53.8179 62.0937C52.5124 60.9999 51.6985 61.0168 50.4778 61.9071C44.586 66.2103 43.6705 72.7307 42.5684 78.984ZM127.224 84.9956C106.924 78.6109 86.9772 79.0306 67.1782 86.3014C67.3266 87.391 67.4538 88.3152 67.6021 89.3878C86.9094 85.3772 105.95 86.1954 124.824 92.0205L127.224 84.9956ZM50.7957 35.5881C49.9183 38.0132 49.0027 40.0481 48.4475 42.1721C47.4514 45.9877 47.7354 49.5574 51.1221 52.2368C54.7334 55.09 59.0866 54.9162 63.3083 54.7805C63.1981 52.0036 63.4652 52.1605 61.261 51.3253C60.709 51.1517 60.2217 50.8165 59.8623 50.3629C59.713 50.0588 59.643 49.722 59.6588 49.3836C59.6563 49.2979 59.6717 49.2127 59.7038 49.1333C59.736 49.0539 59.7842 48.982 59.8456 48.9223C59.907 48.8625 59.9801 48.8161 60.0603 48.7861C60.1405 48.756 60.226 48.7429 60.3116 48.7476C60.5988 48.7597 60.8834 48.8067 61.1593 48.8875C61.8104 49.1575 62.4408 49.4749 63.0455 49.8372C62.7276 45.2119 62.4436 40.9978 62.1469 36.7837C62.1194 36.566 62.0211 36.3634 61.8672 36.2071C60.5956 35.0116 59.2688 33.833 57.8701 32.5654C56.7299 34.736 55.5981 36.9406 54.4113 39.1324C53.7246 40.4042 53.0973 40.4042 52.4064 39.1324C51.8681 38.0937 51.4442 37.0126 50.7957 35.5881ZM123.727 52.2749C123.396 49.4175 123.116 46.9713 122.811 44.3216C116.343 45.763 110.095 44.9448 103.504 43.4737C103.826 44.8515 103.928 46.0174 104.352 47.0349C105.687 50.0577 108.12 51.4906 111.405 51.444C112.774 51.444 113.1 51.9909 112.575 53.2076C112.286 53.8563 112.041 54.5261 111.6 55.6284C113.02 54.8271 114.045 54.3184 114.991 53.6952C116.415 52.7667 117.708 52.6311 119.619 52.5632C121.09 52.4784 122.23 52.4106 123.727 52.2749ZM64.9529 89.2267C45.1526 82.6582 25.2307 82.3629 5.18735 88.3406C5.65361 90.0364 5.65785 90.0703 7.23888 89.6803C21.6568 86.0677 36.6197 85.1621 51.3679 87.0094C55.9076 87.5902 60.4218 88.4805 64.9529 89.2267ZM64.9529 87.3146C64.4019 86.95 63.9017 86.4667 63.2998 86.2463C48.4023 81.1673 32.4999 79.7566 16.9412 82.1339C12.3592 82.8123 7.84925 83.9612 3.02986 84.9532L4.27603 87.1281C24.5539 80.985 44.6157 81.0486 64.9657 87.3146H64.9529ZM63.6474 67.2617L64.4273 66.7529C64.0459 65.5743 63.978 64.1117 63.2235 63.2765C61.5281 61.4111 59.5232 59.851 57.6158 58.1891C57.3402 57.9474 56.8486 57.6507 56.5858 57.7439C55.5812 58.0958 54.636 58.5918 53.6653 59.0412C53.5848 59.4101 53.5 59.7747 53.4152 60.1435L63.6474 67.2617ZM59.6673 56.9384L59.4299 57.2521L63.3126 61.0677L63.8212 60.6734L63.4736 56.9427L59.6673 56.9384Z" fill="black"/>
<path d="M18.34 35.7916C19.9761 35.6729 21.4257 35.7195 22.9559 35.7365C24.307 35.695 25.6594 35.7446 27.0039 35.8849C29.191 36.3597 30.0006 37.4578 30.1066 39.7005C30.1871 41.3963 30.1786 43.0921 30.1405 44.7879C30.0896 47.1832 28.9918 48.3788 26.5673 48.578C22.9305 48.8607 19.2894 49.1052 15.6442 49.3115C15.2003 49.2931 14.7605 49.4033 14.3777 49.6289C13.995 49.8546 13.6856 50.186 13.4867 50.5833C12.8964 51.6481 12.2291 52.6683 11.4902 53.6358C11.2266 53.9396 10.9144 54.1975 10.5662 54.3989C10.4399 54.4843 10.2851 54.5166 10.1353 54.4888C9.98539 54.4611 9.85243 54.3755 9.76509 54.2505C9.52621 53.947 9.33076 53.6117 9.18439 53.2542C8.92068 52.5047 8.74847 51.7261 8.67151 50.9352C8.5613 49.8075 8.12048 49.1292 7.08624 48.4424C6.5748 48.0174 6.23574 47.4205 6.13253 46.7635C5.70745 44.688 5.41019 42.5883 5.2424 40.4763C5.14491 38.454 6.59879 36.9278 9.05723 36.5251C12.1176 36.0333 15.3093 36.0078 18.34 35.7916ZM10.6722 50.4985C10.6809 50.5356 10.7009 50.569 10.7295 50.594C10.7581 50.6191 10.7939 50.6346 10.8317 50.6383C10.8696 50.6421 10.9076 50.6339 10.9406 50.6149C10.9736 50.5959 10.9997 50.5671 11.0155 50.5325C12.3295 47.6369 14.8854 47.3359 17.6872 47.2765C20.489 47.2171 23.384 46.8526 26.2367 46.7084C27.6863 46.6279 28.356 45.9962 28.2543 44.5123C28.1822 43.3507 28.2543 42.1848 28.2543 41.019C28.2543 38.2633 27.8855 37.5849 25.1431 37.5468C20.7581 37.4642 16.3719 37.6156 12.0031 38.0004C7.34056 38.4244 6.98027 39.0137 7.29817 43.7407C7.37447 44.8388 7.33208 45.6782 8.39175 46.8653C9.90497 47.9167 10.3288 48.9638 10.6722 50.4985Z" fill="black"/>
<path d="M20.2349 55.6326C23.5707 55.853 26.8091 56.5907 28.7462 59.9399C29.9796 62.0597 29.7931 64.0226 28.3647 66.0067C28.0339 66.5483 27.9175 67.194 28.0383 67.817C28.2502 68.8981 28.7843 69.9367 29.0174 70.9924C29.1441 71.5758 29.0344 72.1856 28.7123 72.6882C28.5258 72.9171 27.5042 72.8578 27.2118 72.5695C24.8339 70.2208 22.3712 70.4497 19.3829 71.5223C15.3477 72.968 11.8168 71.4121 10.1637 68.1307C8.46825 64.7391 9.4813 60.614 12.6773 58.0406C14.839 56.2939 17.361 55.6665 20.2349 55.6326ZM26.2326 69.835C26.2629 69.8547 26.2982 69.8652 26.3343 69.8652C26.3705 69.8652 26.4058 69.8547 26.4361 69.835C26.5463 69.7587 26.4997 69.64 26.4106 69.3814C26.1945 68.6394 25.8384 67.9018 25.796 67.1514C25.7318 66.477 25.9107 65.8019 26.3004 65.2478C27.9451 63.463 27.9535 61.3941 26.1648 59.6644C22.634 56.2473 14.9704 57.1206 12.3382 61.2711C11.092 63.2383 10.8716 65.3411 12.0288 67.4312C13.1859 69.5213 15.0425 70.1657 17.2593 69.9749C18.369 69.8988 19.4615 69.6603 20.5019 69.2669C22.4687 68.4529 24.3888 67.0623 26.2326 69.835V69.835Z" fill="black"/>
<path d="M8.03157 24.4127C8.03157 20.8727 10.6426 17.4768 14.432 16.1753C17.4131 15.1375 20.6706 15.2249 23.5918 16.4212C25.8214 17.2987 27.4745 18.8886 28.0128 21.2585C28.2544 22.3184 28.3222 23.8912 27.7245 24.578C26.0121 26.5579 26.8175 28.3385 27.5423 30.2293C27.691 30.5681 27.8073 30.9201 27.8899 31.2807C28.0806 32.3703 27.288 33.0189 26.2707 32.6374C26.1696 32.6053 26.0759 32.5534 25.9952 32.4847C23.5113 29.9707 20.8791 30.4371 17.7424 31.4164C12.4483 33.0825 8.01038 29.6146 8.03157 24.4127ZM24.8846 29.6019C24.9143 29.64 25.0923 29.6019 25.122 29.5171C25.155 29.4007 25.155 29.2774 25.122 29.161C24.8286 28.4371 24.614 27.6838 24.4819 26.914C24.4028 26.2884 24.5617 25.6558 24.927 25.1419C26.7242 23.2383 26.6225 20.9871 24.5752 19.2362C21.0062 16.2134 13.9785 16.9977 11.2615 20.7794C9.83302 22.7762 9.50664 24.985 10.685 27.2108C11.8633 29.4365 13.8683 30.0555 16.1953 29.7926C17.2993 29.7033 18.3814 29.4356 19.3997 28.9999C21.269 28.1095 23.045 27.2192 24.6939 29.3814C24.7702 29.4662 24.7871 29.4874 24.8846 29.6019Z" fill="black"/>
<path d="M95.6155 16.1231C99.6592 16.4114 104.093 16.7208 108.522 17.043C109.578 17.1194 110.693 17.043 111.672 17.3737C113.045 17.8274 114.524 18.3361 115.597 19.2476C118.725 21.91 119.115 28.1082 116.538 31.3345C115.101 33.1363 113.147 33.8401 110.926 33.785C109.023 33.7426 107.111 33.5136 105.225 33.361C104.072 33.2762 102.919 33.1999 101.52 33.1024C101.851 34.4548 102.169 35.5995 102.368 36.7653C102.39 36.9696 102.362 37.1761 102.287 37.3674C102.264 37.4378 102.227 37.5027 102.178 37.5581C102.129 37.6136 102.069 37.6584 102.001 37.6898C101.934 37.7211 101.862 37.7384 101.787 37.7406C101.713 37.7427 101.64 37.7297 101.571 37.7023C101.394 37.6405 101.234 37.5407 101.1 37.4098C100.007 36.1888 99.0319 34.866 97.8705 33.6959C97.2931 33.1277 96.5517 32.7554 95.7512 32.6318C93.0723 32.3181 90.368 32.2078 87.6976 31.9577C84.6712 31.6821 82.1873 30.4951 80.7631 27.6207C80.5766 27.2476 79.9959 26.9932 79.5424 26.8406C78.4912 26.4845 77.2704 26.4463 76.3718 25.8825C74.6255 24.7844 73.0063 25.077 71.2854 25.7341C70.3455 26.0942 69.3808 26.3861 68.3989 26.6074C68.2047 26.6407 68.0053 26.6264 67.8179 26.5659C67.6304 26.5053 67.4603 26.4003 67.3222 26.2598C67.2722 26.094 67.2591 25.9192 67.284 25.7477C67.3089 25.5763 67.3712 25.4125 67.4663 25.2677C68.2335 24.1909 69.1618 23.2116 69.857 22.1008C69.9964 21.8528 70.0827 21.5785 70.1104 21.2953C70.1381 21.0121 70.1067 20.7262 70.018 20.4559C68.153 16.068 69.111 11.9344 72.7817 8.88195C78.7158 3.95562 88.5708 4.79505 93.0469 10.7601C94.132 12.2185 94.6745 14.1093 95.6155 16.1231ZM82.0729 27.1882C82.4392 28.0112 83.0059 28.7291 83.7212 29.2764C84.4365 29.8237 85.2775 30.183 86.1675 30.3213C88.6715 30.7419 91.2003 30.9983 93.7378 31.0886C96.3615 31.1607 98.6504 31.627 99.9983 34.1708C100.028 34.2259 100.214 34.5523 100.359 34.4718C100.431 34.4124 100.359 33.9291 100.325 33.785C100.277 33.5199 100.294 33.2474 100.373 32.9899C100.451 32.7325 100.59 32.4975 100.778 32.3044C100.966 32.1113 101.197 31.9657 101.452 31.8796C101.707 31.7936 101.979 31.7694 102.245 31.8093C105.004 32.0298 107.755 32.2672 110.523 32.4198C112.384 32.5216 114.177 32.157 115.402 30.618C117.343 28.1845 117.296 25.361 116.398 22.618C115.571 20.0743 113.588 18.6965 110.888 18.4845C106.929 18.175 102.965 17.9164 99.0192 17.6366L95.1662 17.3653C93.3309 23.6355 90.0501 26.0902 82.0729 27.167V27.1882ZM70.0731 24.1358C70.3678 24.2614 70.6959 24.2853 71.0057 24.2036C71.196 24.1602 71.3819 24.0991 71.5609 24.0213C73.2564 23.2582 74.7103 23.432 76.4736 24.2248C81.4413 26.4506 86.3116 26.0181 90.6011 22.4781C94.5346 19.2306 94.594 14.0415 90.919 10.5311C86.3964 6.21105 78.1139 6.07539 73.4471 10.2428C70.9039 12.5237 69.7044 15.9026 71.0353 18.6626C72.078 20.8289 72.4087 22.5332 70.0731 24.1358Z" fill="black"/>
<path d="M67.2842 87.2596C77.9826 84.7158 90.4783 82.8928 101.482 83.3677C108.852 83.6241 116.14 84.9948 123.099 87.4334C123.896 87.7174 125.159 88.4339 125.927 88.807C126.35 89.0486 125.774 89.727 125.74 89.9305C125.202 89.6905 124.652 89.4796 124.091 89.2988C120.777 88.4042 117.517 87.2765 114.164 86.5812C110.451 85.8096 106.666 85.0677 102.893 84.949C97.2386 84.7341 91.5758 84.8757 85.9387 85.373C80.3266 85.8987 72.8793 87.3443 67.2884 88.2347" fill="black"/>
<path d="M54.835 43.1811C54.5514 43.2811 54.2498 43.3196 53.9501 43.294C53.6505 43.2684 53.3597 43.1793 53.0972 43.0327C52.4114 42.7029 51.7524 42.3202 51.1262 41.888C50.9711 41.7698 50.8501 41.6125 50.7757 41.4323C50.7012 41.2521 50.6759 41.0553 50.7023 40.8621C50.7185 40.7108 50.7836 40.569 50.8876 40.4581C50.9916 40.3472 51.1289 40.2732 51.2788 40.2473C51.6385 40.2303 51.9969 40.3032 52.3215 40.4593C54.479 41.7312 54.5044 41.7566 56.0939 39.7428C56.2839 39.4769 56.5591 39.2839 56.8738 39.1959C57.0007 39.1656 57.1327 39.1639 57.2603 39.1911C57.3879 39.2182 57.5078 39.2734 57.6114 39.3528C57.73 39.4757 58.0352 39.6919 57.7936 40.5568C57.4842 41.7736 56.2931 42.6511 54.835 43.1811Z" fill="black"/>
<path d="M17.0433 25.5016L14.32 23.9793C14.0462 23.8262 13.7006 23.9233 13.5482 24.1962C13.3957 24.4691 13.4941 24.8143 13.7679 24.9674L16.4911 26.4897C16.765 26.6427 17.1105 26.5456 17.263 26.2728C17.4155 25.9999 17.3171 25.6546 17.0433 25.5016Z" fill="black"/>
<path d="M14.509 24.7302L16.2915 21.5401C16.4445 21.2662 16.3475 20.9206 16.0746 20.7681C15.8018 20.6156 15.4566 20.714 15.3036 20.9879L13.5211 24.1779C13.368 24.4518 13.4651 24.7975 13.7379 24.95C14.0107 25.1024 14.356 25.004 14.509 24.7302Z" fill="black"/>
<path d="M16.9851 25.2987L16.5566 25.4598C16.2629 25.5702 16.114 25.8969 16.224 26.1895C16.334 26.4821 16.6611 26.6298 16.9548 26.5194L17.3833 26.3583C17.6769 26.2479 17.8258 25.9212 17.7158 25.6286C17.6059 25.336 17.2787 25.1883 16.9851 25.2987Z" fill="black"/>
<path d="M19.4414 23.816L22.4432 22.9664C22.7451 22.881 22.9208 22.5679 22.8357 22.2672C22.7506 21.9664 22.4369 21.7918 22.1351 21.8773L19.1333 22.7269C18.8314 22.8123 18.6557 23.1254 18.7408 23.4261C18.8259 23.7269 19.1396 23.9015 19.4414 23.816Z" fill="black"/>
<path d="M19.1536 24.978L19.8242 23.4993C19.9538 23.2136 19.8281 22.8773 19.5435 22.7481C19.2589 22.619 18.9231 22.7459 18.7936 23.0317L18.1229 24.5104C17.9933 24.7961 18.119 25.1324 18.4036 25.2616C18.6882 25.3907 19.024 25.2637 19.1536 24.978Z" fill="black"/>
<path d="M24.7422 62.4266L22.019 60.9043C21.7452 60.7513 21.3996 60.8484 21.2471 61.1213C21.0947 61.3941 21.193 61.7394 21.4669 61.8925L24.1901 63.4147C24.4639 63.5678 24.8095 63.4707 24.962 63.1978C25.1144 62.925 25.0161 62.5797 24.7422 62.4266Z" fill="black"/>
<path d="M21.2383 63.4682L22.2371 61.6807C22.3901 61.4068 22.293 61.0612 22.0202 60.9087C21.7474 60.7562 21.4022 60.8546 21.2492 61.1285L20.2504 62.916C20.0973 63.1898 20.1944 63.5355 20.4672 63.688C20.74 63.8405 21.0852 63.7421 21.2383 63.4682Z" fill="black"/>
<path d="M23.4174 65.9988L24.958 63.2418C25.111 62.9679 25.014 62.6222 24.7411 62.4697C24.4683 62.3172 24.1231 62.4156 23.9701 62.6895L22.4295 65.4466C22.2765 65.7205 22.3736 66.0661 22.6464 66.2186C22.9192 66.3711 23.2644 66.2727 23.4174 65.9988Z" fill="black"/>
<path d="M18.9142 64.2962L20.8841 63.7387C21.186 63.6532 21.3617 63.3402 21.2766 63.0394C21.1915 62.7386 20.8778 62.5641 20.576 62.6495L18.6061 63.207C18.3042 63.2925 18.1285 63.6055 18.2136 63.9063C18.2987 64.2071 18.6124 64.3816 18.9142 64.2962Z" fill="black"/>
<path d="M16.2028 65.1572L14.5192 64.2161C14.2454 64.063 13.8998 64.1602 13.7474 64.433C13.5949 64.7059 13.6933 65.0512 13.9671 65.2042L15.6506 66.1453C15.9245 66.2984 16.27 66.2013 16.4225 65.9284C16.575 65.6555 16.4766 65.3103 16.2028 65.1572Z" fill="black"/>
<path d="M15.7121 66.9648L15.39 65.8413C15.3496 65.6962 15.3684 65.5411 15.4423 65.4099C15.5162 65.2788 15.6392 65.1823 15.7842 65.1418C15.8557 65.1211 15.9306 65.1148 16.0046 65.1233C16.0785 65.1317 16.1501 65.1547 16.2151 65.191C16.2801 65.2273 16.3373 65.2761 16.3834 65.3346C16.4295 65.393 16.4635 65.4601 16.4835 65.5318L16.8015 66.6722C16.842 66.8167 16.8237 66.9714 16.7507 67.1024C16.6776 67.2335 16.5557 67.3303 16.4115 67.3718V67.3718C16.3388 67.3915 16.263 67.3967 16.1883 67.3869C16.1137 67.3771 16.0417 67.3525 15.9766 67.3147C15.9116 67.2768 15.8547 67.2263 15.8092 67.1663C15.7638 67.1062 15.7308 67.0377 15.7121 66.9648Z" fill="black"/>
<path d="M16.4496 61.6824L15.284 63.7725C15.2108 63.9039 15.0884 64.0009 14.9438 64.0423C14.7992 64.0836 14.6441 64.0658 14.5125 63.9929V63.9929C14.3811 63.9197 14.2841 63.7974 14.2428 63.6527C14.2015 63.5081 14.2192 63.3529 14.2921 63.2214L15.4577 61.127C15.5317 60.9963 15.6543 60.9002 15.7989 60.8597C15.9434 60.8192 16.0981 60.8376 16.2292 60.9108C16.3606 60.984 16.4576 61.1064 16.4989 61.251C16.5402 61.3957 16.5225 61.5508 16.4496 61.6824V61.6824Z" fill="black"/>
<path d="M17.4837 63.2977L16.3181 65.3878C16.2823 65.4532 16.2338 65.511 16.1755 65.5576C16.1172 65.6042 16.0502 65.6387 15.9784 65.6592C15.9067 65.6797 15.8315 65.6858 15.7574 65.677C15.6833 65.6683 15.6117 65.6449 15.5466 65.6082C15.416 65.5343 15.3199 65.4116 15.2794 65.267C15.2389 65.1224 15.2572 64.9677 15.3305 64.8366L16.4961 62.7465C16.5319 62.681 16.5804 62.6233 16.6387 62.5767C16.697 62.5301 16.764 62.4956 16.8358 62.4751C16.9075 62.4546 16.9827 62.4485 17.0568 62.4573C17.1309 62.466 17.2025 62.4894 17.2675 62.5261V62.5261C17.3982 62.6 17.4943 62.7227 17.5348 62.8673C17.5753 63.0118 17.557 63.1666 17.4837 63.2977V63.2977Z" fill="black"/>
<path d="M77.9239 17.9269L75.2006 16.4046C74.9268 16.2515 74.5812 16.3486 74.4288 16.6215C74.2763 16.8944 74.3747 17.2396 74.6485 17.3927L77.3717 18.915C77.6456 19.068 77.9912 18.9709 78.1436 18.6981C78.2961 18.4252 78.1977 18.0799 77.9239 17.9269Z" fill="black"/>
<path d="M78.203 18.5417L79.1135 15.5573C79.2051 15.2572 79.037 14.94 78.7381 14.8487C78.4392 14.7575 78.1226 14.9268 78.0311 15.2269L77.1205 18.2113C77.029 18.5114 77.1971 18.8286 77.496 18.9199C77.7949 19.0111 78.1114 18.8418 78.203 18.5417Z" fill="black"/>
<path d="M80.7951 15.453L82.0656 15.609C82.377 15.6472 82.6603 15.4267 82.6984 15.1165C82.7364 14.8062 82.5149 14.5237 82.2036 14.4855L80.933 14.3294C80.6217 14.2912 80.3384 14.5117 80.3003 14.822C80.2622 15.1322 80.4837 15.4147 80.7951 15.453Z" fill="black"/>
<path d="M80.3018 14.993L80.5862 18.1003C80.6148 18.4127 80.8902 18.6429 81.2015 18.6144C81.5127 18.5859 81.7418 18.3095 81.7132 17.9971L81.4288 14.8898C81.4002 14.5774 81.1247 14.3472 80.8135 14.3757C80.5023 14.4041 80.2732 14.6805 80.3018 14.993Z" fill="black"/>
<path d="M86.3427 15.2815L84.5007 17.7998C84.3154 18.053 84.3697 18.4079 84.622 18.5925C84.8742 18.7771 85.2288 18.7214 85.414 18.4682L87.2561 15.9499C87.4413 15.6967 87.387 15.3418 87.1348 15.1572C86.8826 14.9727 86.5279 15.0283 86.3427 15.2815Z" fill="black"/>
<path d="M86.9924 15.0924L84.653 14.0521C84.3664 13.9246 84.0311 14.0528 83.9041 14.3385C83.7772 14.6241 83.9066 14.959 84.1933 15.0864L86.5326 16.1267C86.8193 16.2542 87.1546 16.126 87.2815 15.8403C87.4085 15.5547 87.279 15.2198 86.9924 15.0924Z" fill="black"/>
<path d="M100.749 21.6655L101.418 23.302C101.478 23.4403 101.48 23.5966 101.424 23.7365C101.369 23.8764 101.26 23.9885 101.122 24.0482V24.0482C100.983 24.1077 100.827 24.1098 100.687 24.0542C100.547 23.9985 100.435 23.8896 100.376 23.7514L99.7059 22.1149C99.6464 21.9766 99.6442 21.8203 99.6999 21.6804C99.7555 21.5405 99.8644 21.4284 100.003 21.3688C100.141 21.3093 100.297 21.3071 100.437 21.3627C100.577 21.4184 100.689 21.5273 100.749 21.6655Z" fill="black"/>
<path d="M99.893 21.4534L97.4708 23.1892C97.2158 23.3719 97.1566 23.726 97.3386 23.9801C97.5206 24.2342 97.8749 24.292 98.1299 24.1093L100.552 22.3735C100.807 22.1908 100.866 21.8367 100.684 21.5826C100.502 21.3285 100.148 21.2706 99.893 21.4534Z" fill="black"/>
<path d="M97.0313 20.9024L98.1333 23.4079C98.2046 23.5515 98.2165 23.7173 98.1665 23.8696C98.1166 24.0219 98.0087 24.1485 97.8663 24.2219V24.2219C97.7172 24.2758 97.553 24.2691 97.4088 24.2033C97.2646 24.1376 97.1519 24.0179 97.0948 23.87L95.9928 21.3645C95.9204 21.2211 95.9079 21.0548 95.9579 20.9022C96.008 20.7496 96.1166 20.6231 96.2598 20.5505V20.5505C96.4089 20.4966 96.5731 20.5033 96.7173 20.5691C96.8615 20.6348 96.9742 20.7545 97.0313 20.9024V20.9024Z" fill="black"/>
<path d="M94.9841 25.4769L94.4415 24.0693C94.4002 23.9361 94.4131 23.7919 94.4773 23.6681C94.5416 23.5443 94.6521 23.4508 94.7849 23.408V23.408C94.9093 23.3455 95.0532 23.3344 95.1857 23.3773C95.3182 23.4201 95.4285 23.5134 95.4927 23.6369L96.031 25.0487C96.0726 25.1813 96.0603 25.325 95.9968 25.4488C95.9334 25.5725 95.8239 25.6663 95.6919 25.71V25.71C95.6302 25.7414 95.5628 25.7602 95.4938 25.7655C95.4247 25.7707 95.3553 25.7623 95.2895 25.7406C95.2238 25.7189 95.1629 25.6845 95.1105 25.6392C95.0581 25.594 95.0151 25.5388 94.9841 25.4769V25.4769Z" fill="black"/>
<path d="M95.7968 25.7068L98.2514 24.0169C98.5098 23.839 98.5756 23.4861 98.3984 23.2286C98.2212 22.9711 97.8681 22.9066 97.6097 23.0845L95.1551 24.7743C94.8967 24.9522 94.8309 25.3052 95.0081 25.5626C95.1853 25.8201 95.5384 25.8846 95.7968 25.7068Z" fill="black"/>
<path d="M106.836 27.3931L107.505 29.0295C107.565 29.1678 107.567 29.3241 107.511 29.464C107.456 29.6039 107.347 29.716 107.209 29.7757C107.07 29.8352 106.914 29.8374 106.774 29.7817C106.634 29.7261 106.522 29.6172 106.463 29.4789L105.793 27.8425C105.733 27.7042 105.731 27.5479 105.787 27.408C105.842 27.2681 105.951 27.156 106.09 27.0963C106.228 27.0368 106.384 27.0346 106.524 27.0903C106.664 27.1459 106.776 27.2548 106.836 27.3931V27.3931Z" fill="black"/>
<path d="M105.242 23.0222L105.911 24.6629C105.941 24.7311 105.956 24.8044 105.957 24.8787C105.958 24.9529 105.945 25.0266 105.917 25.0955C105.89 25.1645 105.849 25.2273 105.797 25.2803C105.745 25.3334 105.683 25.3757 105.615 25.4048V25.4048C105.547 25.4349 105.474 25.4512 105.4 25.4528C105.325 25.4544 105.252 25.4411 105.183 25.4139C105.114 25.3867 105.051 25.346 104.997 25.2942C104.944 25.2424 104.902 25.1806 104.873 25.1123L104.203 23.4462C104.174 23.3783 104.158 23.3052 104.157 23.2311C104.155 23.1571 104.169 23.0835 104.196 23.0146C104.223 22.9457 104.263 22.8829 104.315 22.8296C104.366 22.7764 104.428 22.7338 104.496 22.7043V22.7043C104.565 22.6754 104.64 22.6607 104.716 22.6611C104.791 22.6615 104.866 22.677 104.935 22.7066C105.005 22.7362 105.068 22.7794 105.12 22.8336C105.173 22.8878 105.214 22.9519 105.242 23.0222V23.0222Z" fill="black"/>
<path d="M107.84 22.7634L108.51 24.3999C108.57 24.5377 108.572 24.6935 108.517 24.8334C108.463 24.9732 108.355 25.0856 108.217 25.1461V25.1461C108.079 25.2056 107.923 25.2077 107.783 25.1521C107.643 25.0964 107.531 24.9875 107.471 24.8493L106.802 23.2128C106.742 23.075 106.739 22.9192 106.794 22.7794C106.849 22.6395 106.957 22.5271 107.094 22.4667V22.4667C107.232 22.4072 107.389 22.405 107.528 22.4606C107.668 22.5163 107.78 22.6252 107.84 22.7634V22.7634Z" fill="black"/>
<path d="M111.286 23.2002L110.604 24.8324C110.547 24.9716 110.438 25.083 110.3 25.1425C110.162 25.202 110.006 25.2048 109.866 25.1504V25.1504C109.726 25.0947 109.614 24.9857 109.554 24.8474C109.495 24.709 109.493 24.5527 109.548 24.4127L110.231 22.7805C110.287 22.6412 110.396 22.5298 110.534 22.4703C110.672 22.4108 110.828 22.408 110.968 22.4625V22.4625C111.108 22.5182 111.22 22.6272 111.28 22.7655C111.339 22.9038 111.342 23.0602 111.286 23.2002V23.2002Z" fill="black"/>
<path d="M110.014 25.4895L107.047 27.5584C106.53 27.9272 105.966 28.0205 105.776 27.7661C105.593 27.5118 105.865 27.0073 106.382 26.6342L109.324 24.5695C109.841 24.2007 110.409 24.1032 110.595 24.3575C110.786 24.6119 110.532 25.1419 110.014 25.4895Z" fill="black"/>
<path d="M100.549 25.9092L101.651 28.4147C101.687 28.4854 101.709 28.5625 101.715 28.6415C101.721 28.7204 101.711 28.7998 101.686 28.8751C101.661 28.9503 101.622 29.0199 101.57 29.0798C101.518 29.1398 101.455 29.189 101.384 29.2245V29.2245C101.31 29.2521 101.231 29.2647 101.152 29.2615C101.073 29.2582 100.995 29.2393 100.923 29.2058C100.852 29.1723 100.787 29.1248 100.734 29.0661C100.681 29.0075 100.639 28.9388 100.613 28.8641L99.5109 26.3586C99.443 26.2191 99.4316 26.0588 99.479 25.9111C99.5264 25.7634 99.6289 25.6397 99.7653 25.5658V25.5658C99.8392 25.5364 99.9183 25.5219 99.9979 25.5233C100.078 25.5246 100.156 25.5418 100.229 25.5737C100.302 25.6057 100.368 25.6518 100.423 25.7094C100.478 25.7669 100.521 25.8349 100.549 25.9092Z" fill="black"/>
<path d="M98.4937 28.9575L99.1719 30.4837C99.2566 30.683 99.0913 30.9458 98.8073 31.0688C98.5191 31.1917 98.2139 31.1324 98.1291 30.9374L97.451 29.4111C97.3662 29.2119 97.5315 28.949 97.8155 28.8261C98.0995 28.6862 98.4004 28.7455 98.4937 28.9575Z" fill="black"/>
<path d="M99.6322 25.6343L97.0962 27.4516C96.8412 27.6343 96.7821 27.9885 96.9641 28.2426C97.1461 28.4966 97.5004 28.5545 97.7554 28.3718L100.291 26.5545C100.546 26.3718 100.606 26.0176 100.423 25.7635C100.241 25.5094 99.8872 25.4516 99.6322 25.6343Z" fill="black"/>
<path d="M12.4586 43.7239L10.8649 43.692C10.5512 43.6858 10.2918 43.9341 10.2856 44.2466C10.2793 44.5592 10.5285 44.8177 10.8422 44.824L12.436 44.8559C12.7497 44.8621 13.009 44.6138 13.0153 44.3012C13.0215 43.9887 12.7723 43.7302 12.4586 43.7239Z" fill="black"/>
<path d="M13.0028 44.1295L12.4027 41.0675C12.3424 40.7596 12.0448 40.5588 11.7382 40.6189C11.4315 40.679 11.2318 40.9773 11.2921 41.2852L11.8922 44.3473C11.9525 44.6551 12.25 44.856 12.5567 44.7959C12.8634 44.7358 13.0631 44.4374 13.0028 44.1295Z" fill="black"/>
<path d="M24.9131 40.0915L23.4978 44.7303C23.4063 45.0304 23.5743 45.3476 23.8733 45.4389C24.1722 45.5301 24.4887 45.3608 24.5803 45.0607L25.9956 40.4219C26.0871 40.1218 25.919 39.8045 25.6201 39.7133C25.3212 39.6221 25.0047 39.7914 24.9131 40.0915Z" fill="black"/>
<path d="M21.2611 40.9826L24.3987 42.7365C24.6726 42.8896 25.0181 42.7925 25.1706 42.5196C25.3231 42.2468 25.2247 41.9015 24.9509 41.7484L21.8132 39.9945C21.5394 39.8414 21.1938 39.9385 21.0413 40.2114C20.8889 40.4843 20.9873 40.8295 21.2611 40.9826Z" fill="black"/>
<path d="M18.0236 40.6058L17.113 43.5902C17.0215 43.8903 17.1896 44.2075 17.4885 44.2987C17.7874 44.39 18.1039 44.2207 18.1955 43.9206L19.106 40.9361C19.1976 40.636 19.0295 40.3188 18.7306 40.2276C18.4317 40.1364 18.1151 40.3057 18.0236 40.6058Z" fill="black"/>
<path d="M21.7909 40.7715L20.8804 43.756C20.7888 44.056 20.9569 44.3733 21.2558 44.4645C21.5547 44.5557 21.8713 44.3864 21.9628 44.0863L22.8734 41.1019C22.9649 40.8018 22.7968 40.4846 22.4979 40.3934C22.199 40.3021 21.8825 40.4714 21.7909 40.7715Z" fill="black"/>
<path d="M14.8639 44.0026L14.2638 40.9405C14.2035 40.6327 13.9059 40.4318 13.5992 40.4919C13.2926 40.552 13.0929 40.8504 13.1532 41.1583L13.7533 44.2203C13.8136 44.5282 14.1111 44.7291 14.4178 44.6689C14.7245 44.6088 14.9242 44.3105 14.8639 44.0026Z" fill="black"/>
<path d="M11.7337 41.6867L14.8534 41.4682C15.1671 41.4463 15.4037 41.1751 15.3818 40.8625C15.3599 40.5499 15.0879 40.3143 14.7742 40.3363L11.6545 40.5547C11.3408 40.5767 11.1043 40.8479 11.1261 41.1604C11.148 41.473 11.42 41.7086 11.7337 41.6867Z" fill="black"/>
</svg>
