
<svg width="991" height="254" viewBox="0 0 991 254" fill="none" xmlns="http://www.w3.org/2000/svg">
<g clip-path="url(#clip0_366_233)">
<path d="M31.7498 127C31.7647 113.881 35.8427 101.089 43.4232 90.3812C51.0036 79.6738 61.7143 71.5772 74.0831 67.2042V45.085C55.9645 49.8206 39.9272 60.4296 28.4811 75.2518C17.0351 90.074 10.8262 108.273 10.8262 127C10.8262 145.727 17.0351 163.926 28.4811 178.748C39.9272 193.57 55.9645 204.179 74.0831 208.915V186.796C61.7143 182.423 51.0036 174.326 43.4232 163.619C35.8427 152.911 31.7647 140.119 31.7498 127Z" fill="#3CD5B7"/>
<path d="M158.75 42.3333C142.004 42.3333 125.635 47.299 111.711 56.6022C97.7881 65.9055 86.9361 79.1287 80.5279 94.5995C74.1197 110.07 72.443 127.094 75.7099 143.518C78.9768 159.941 87.0405 175.028 98.8813 186.868C110.722 198.709 125.808 206.773 142.232 210.04C158.656 213.307 175.679 211.63 191.15 205.222C206.621 198.814 219.844 187.962 229.147 174.038C238.451 160.115 243.416 143.745 243.416 127C243.416 104.545 234.496 83.0097 218.618 67.1316C202.74 51.2536 181.205 42.3333 158.75 42.3333ZM129.434 71.8608L136.948 79.375C132.23 82.7673 128.388 87.2336 125.738 92.4048C123.088 97.576 121.707 103.304 121.708 109.114H111.125C111.159 101.924 112.825 94.8356 115.997 88.3826C119.168 81.9297 123.762 76.2806 129.434 71.8608ZM158.75 179.917C155.943 179.917 153.251 178.802 151.266 176.817C149.281 174.832 148.166 172.14 148.166 169.333H169.333C169.333 172.14 168.218 174.832 166.233 176.817C164.248 178.802 161.557 179.917 158.75 179.917ZM201.083 158.75H116.416V148.167L130.492 137.583V112.924C130.49 107.3 132.172 101.804 135.322 97.1447C138.473 92.4854 142.946 88.8766 148.166 86.7833V84.6667C148.166 81.8598 149.281 79.1679 151.266 77.1831C153.251 75.1984 155.943 74.0833 158.75 74.0833C161.557 74.0833 164.248 75.1984 166.233 77.1831C168.218 79.1679 169.333 81.8598 169.333 84.6667V86.7833C174.553 88.8766 179.027 92.4854 182.177 97.1447C185.327 101.804 187.01 107.3 187.007 112.924V137.583L201.083 148.167V158.75ZM195.791 109.114C195.793 103.304 194.411 97.576 191.761 92.4048C189.112 87.2336 185.269 82.7673 180.551 79.375L188.066 71.8608C193.737 76.2806 198.331 81.9297 201.503 88.3826C204.674 94.8356 206.34 101.924 206.375 109.114H195.791Z" fill="#3CD5B7"/>
</g>
<path d="M305.178 161.5V104.86H282.906V94.3H339.93V104.86H317.658V161.5H305.178ZM366.99 162.172C361.294 162.172 356.302 161.052 352.014 158.812C347.79 156.508 344.494 153.372 342.126 149.404C339.822 145.436 338.67 140.924 338.67 135.868C338.67 130.748 339.79 126.236 342.03 122.332C344.334 118.364 347.47 115.26 351.438 113.02C355.47 110.78 360.046 109.66 365.166 109.66C370.158 109.66 374.606 110.748 378.51 112.924C382.414 115.1 385.486 118.172 387.726 122.14C389.966 126.108 391.086 130.78 391.086 136.156C391.086 136.668 391.054 137.244 390.99 137.884C390.99 138.524 390.958 139.132 390.894 139.708H348.174V131.74H384.558L379.854 134.236C379.918 131.292 379.31 128.7 378.03 126.46C376.75 124.22 374.99 122.46 372.75 121.18C370.574 119.9 368.046 119.26 365.166 119.26C362.222 119.26 359.63 119.9 357.39 121.18C355.214 122.46 353.486 124.252 352.206 126.556C350.99 128.796 350.382 131.452 350.382 134.524V136.444C350.382 139.516 351.086 142.236 352.494 144.604C353.902 146.972 355.886 148.796 358.446 150.076C361.006 151.356 363.95 151.996 367.278 151.996C370.158 151.996 372.75 151.548 375.054 150.652C377.358 149.756 379.406 148.348 381.198 146.428L387.63 153.82C385.326 156.508 382.414 158.588 378.894 160.06C375.438 161.468 371.47 162.172 366.99 162.172ZM431.701 109.66C435.797 109.66 439.445 110.46 442.645 112.06C445.909 113.66 448.469 116.124 450.325 119.452C452.181 122.716 453.109 126.94 453.109 132.124V161.5H441.109V133.66C441.109 129.116 440.021 125.724 437.845 123.484C435.733 121.244 432.757 120.124 428.917 120.124C426.101 120.124 423.605 120.7 421.429 121.852C419.253 123.004 417.557 124.732 416.341 127.036C415.189 129.276 414.613 132.124 414.613 135.58V161.5H402.613V110.236H414.037V124.06L412.021 119.836C413.813 116.572 416.405 114.076 419.797 112.348C423.253 110.556 427.221 109.66 431.701 109.66ZM499.916 161.5V151.132L499.244 148.924V130.78C499.244 127.26 498.188 124.54 496.076 122.62C493.964 120.636 490.764 119.644 486.476 119.644C483.596 119.644 480.748 120.092 477.932 120.988C475.18 121.884 472.844 123.132 470.924 124.732L466.22 115.996C468.972 113.884 472.236 112.316 476.012 111.292C479.852 110.204 483.82 109.66 487.916 109.66C495.34 109.66 501.068 111.452 505.1 115.036C509.196 118.556 511.244 124.028 511.244 131.452V161.5H499.916ZM483.788 162.172C479.948 162.172 476.588 161.532 473.708 160.252C470.828 158.908 468.588 157.084 466.988 154.78C465.452 152.412 464.684 149.756 464.684 146.812C464.684 143.932 465.356 141.34 466.7 139.036C468.108 136.732 470.38 134.908 473.516 133.564C476.652 132.22 480.812 131.548 485.996 131.548H500.876V139.516H486.86C482.764 139.516 480.012 140.188 478.604 141.532C477.196 142.812 476.492 144.412 476.492 146.332C476.492 148.508 477.356 150.236 479.084 151.516C480.812 152.796 483.212 153.436 486.284 153.436C489.228 153.436 491.852 152.764 494.156 151.42C496.524 150.076 498.22 148.092 499.244 145.468L501.26 152.668C500.108 155.676 498.028 158.012 495.02 159.676C492.076 161.34 488.332 162.172 483.788 162.172ZM555.732 109.66C559.828 109.66 563.476 110.46 566.676 112.06C569.94 113.66 572.5 116.124 574.356 119.452C576.212 122.716 577.14 126.94 577.14 132.124V161.5H565.14V133.66C565.14 129.116 564.052 125.724 561.876 123.484C559.764 121.244 556.788 120.124 552.948 120.124C550.132 120.124 547.636 120.7 545.46 121.852C543.284 123.004 541.588 124.732 540.372 127.036C539.22 129.276 538.644 132.124 538.644 135.58V161.5H526.644V110.236H538.068V124.06L536.052 119.836C537.844 116.572 540.436 114.076 543.828 112.348C547.284 110.556 551.252 109.66 555.732 109.66ZM611.659 162.172C606.027 162.172 601.675 160.732 598.603 157.852C595.531 154.908 593.995 150.588 593.995 144.892V98.908H605.995V144.604C605.995 147.036 606.603 148.924 607.819 150.268C609.099 151.612 610.859 152.284 613.099 152.284C615.787 152.284 618.027 151.58 619.819 150.172L623.179 158.716C621.771 159.868 620.043 160.732 617.995 161.308C615.947 161.884 613.835 162.172 611.659 162.172ZM585.547 120.22V110.62H619.723V120.22H585.547ZM647.835 161.5V104.86H625.563V94.3H682.587V104.86H660.315V161.5H647.835ZM689.582 161.5V110.236H701.006V124.348L699.662 120.22C701.198 116.764 703.598 114.14 706.862 112.348C710.19 110.556 714.318 109.66 719.246 109.66V121.084C718.734 120.956 718.254 120.892 717.806 120.892C717.358 120.828 716.91 120.796 716.462 120.796C711.918 120.796 708.302 122.14 705.614 124.828C702.926 127.452 701.582 131.388 701.582 136.636V161.5H689.582ZM757.353 161.5V151.132L756.681 148.924V130.78C756.681 127.26 755.625 124.54 753.513 122.62C751.401 120.636 748.201 119.644 743.913 119.644C741.033 119.644 738.185 120.092 735.369 120.988C732.617 121.884 730.281 123.132 728.361 124.732L723.657 115.996C726.409 113.884 729.673 112.316 733.449 111.292C737.289 110.204 741.257 109.66 745.353 109.66C752.777 109.66 758.505 111.452 762.537 115.036C766.633 118.556 768.681 124.028 768.681 131.452V161.5H757.353ZM741.225 162.172C737.385 162.172 734.025 161.532 731.145 160.252C728.265 158.908 726.025 157.084 724.425 154.78C722.889 152.412 722.121 149.756 722.121 146.812C722.121 143.932 722.793 141.34 724.137 139.036C725.545 136.732 727.817 134.908 730.953 133.564C734.089 132.22 738.249 131.548 743.433 131.548H758.313V139.516H744.297C740.201 139.516 737.449 140.188 736.041 141.532C734.633 142.812 733.929 144.412 733.929 146.332C733.929 148.508 734.793 150.236 736.521 151.516C738.249 152.796 740.649 153.436 743.721 153.436C746.665 153.436 749.289 152.764 751.593 151.42C753.961 150.076 755.657 148.092 756.681 145.468L758.697 152.668C757.545 155.676 755.465 158.012 752.457 159.676C749.513 161.34 745.769 162.172 741.225 162.172ZM807.696 162.172C802.32 162.172 797.52 161.052 793.296 158.812C789.136 156.508 785.872 153.372 783.504 149.404C781.136 145.436 779.952 140.924 779.952 135.868C779.952 130.748 781.136 126.236 783.504 122.332C785.872 118.364 789.136 115.26 793.296 113.02C797.52 110.78 802.32 109.66 807.696 109.66C812.688 109.66 817.072 110.684 820.848 112.732C824.688 114.716 827.6 117.66 829.584 121.564L820.368 126.94C818.832 124.508 816.944 122.716 814.704 121.564C812.528 120.412 810.16 119.836 807.6 119.836C804.656 119.836 802 120.476 799.632 121.756C797.264 123.036 795.408 124.892 794.064 127.324C792.72 129.692 792.048 132.54 792.048 135.868C792.048 139.196 792.72 142.076 794.064 144.508C795.408 146.876 797.264 148.7 799.632 149.98C802 151.26 804.656 151.9 807.6 151.9C810.16 151.9 812.528 151.324 814.704 150.172C816.944 149.02 818.832 147.228 820.368 144.796L829.584 150.172C827.6 154.012 824.688 156.988 820.848 159.1C817.072 161.148 812.688 162.172 807.696 162.172ZM849.28 150.076L849.568 135.004L876.352 110.236H890.752L868 133.084L861.664 138.364L849.28 150.076ZM839.488 161.5V90.268H851.488V161.5H839.488ZM878.176 161.5L859.456 138.364L867.04 128.764L892.768 161.5H878.176ZM922.459 162.172C916.763 162.172 911.771 161.052 907.483 158.812C903.259 156.508 899.963 153.372 897.595 149.404C895.291 145.436 894.139 140.924 894.139 135.868C894.139 130.748 895.259 126.236 897.499 122.332C899.803 118.364 902.939 115.26 906.907 113.02C910.939 110.78 915.515 109.66 920.635 109.66C925.627 109.66 930.075 110.748 933.979 112.924C937.883 115.1 940.955 118.172 943.195 122.14C945.435 126.108 946.555 130.78 946.555 136.156C946.555 136.668 946.523 137.244 946.459 137.884C946.459 138.524 946.427 139.132 946.363 139.708H903.643V131.74H940.027L935.323 134.236C935.387 131.292 934.779 128.7 933.499 126.46C932.219 124.22 930.459 122.46 928.219 121.18C926.043 119.9 923.515 119.26 920.635 119.26C917.691 119.26 915.099 119.9 912.859 121.18C910.683 122.46 908.955 124.252 907.675 126.556C906.459 128.796 905.851 131.452 905.851 134.524V136.444C905.851 139.516 906.555 142.236 907.963 144.604C909.371 146.972 911.355 148.796 913.915 150.076C916.475 151.356 919.419 151.996 922.747 151.996C925.627 151.996 928.219 151.548 930.523 150.652C932.827 149.756 934.875 148.348 936.667 146.428L943.099 153.82C940.795 156.508 937.883 158.588 934.363 160.06C930.907 161.468 926.939 162.172 922.459 162.172ZM958.082 161.5V110.236H969.506V124.348L968.162 120.22C969.698 116.764 972.098 114.14 975.362 112.348C978.69 110.556 982.818 109.66 987.746 109.66V121.084C987.234 120.956 986.754 120.892 986.306 120.892C985.858 120.828 985.41 120.796 984.962 120.796C980.418 120.796 976.802 122.14 974.114 124.828C971.426 127.452 970.082 131.388 970.082 136.636V161.5H958.082Z" fill="#3CD5B7"/>
<defs>
<clipPath id="clip0_366_233">
<rect width="254" height="254" fill="white"/>
</clipPath>
</defs>
</svg>
