<svg width="694" height="718" viewBox="0 0 694 718" fill="none" xmlns="http://www.w3.org/2000/svg">
<path d="M0 0H694V718H0V0Z" fill="white"/>
<path d="M109.36 560V526.4H117.184L135.712 548.768H132.016V526.4H141.328V560H133.504L114.976 537.632H118.672V560H109.36ZM164.976 560.672C162.288 560.672 159.808 560.24 157.536 559.376C155.264 558.512 153.28 557.296 151.584 555.728C149.92 554.128 148.624 552.272 147.696 550.16C146.768 548.048 146.304 545.728 146.304 543.2C146.304 540.672 146.768 538.352 147.696 536.24C148.624 534.128 149.92 532.288 151.584 530.72C153.28 529.12 155.264 527.888 157.536 527.024C159.808 526.16 162.288 525.728 164.976 525.728C167.696 525.728 170.176 526.16 172.416 527.024C174.688 527.888 176.656 529.12 178.32 530.72C179.984 532.288 181.28 534.128 182.208 536.24C183.168 538.352 183.648 540.672 183.648 543.2C183.648 545.728 183.168 548.064 182.208 550.208C181.28 552.32 179.984 554.16 178.32 555.728C176.656 557.296 174.688 558.512 172.416 559.376C170.176 560.24 167.696 560.672 164.976 560.672ZM164.976 552.8C166.256 552.8 167.44 552.576 168.528 552.128C169.648 551.68 170.608 551.04 171.408 550.208C172.24 549.344 172.88 548.32 173.328 547.136C173.808 545.952 174.048 544.64 174.048 543.2C174.048 541.728 173.808 540.416 173.328 539.264C172.88 538.08 172.24 537.072 171.408 536.24C170.608 535.376 169.648 534.72 168.528 534.272C167.44 533.824 166.256 533.6 164.976 533.6C163.696 533.6 162.496 533.824 161.376 534.272C160.288 534.72 159.328 535.376 158.496 536.24C157.696 537.072 157.056 538.08 156.576 539.264C156.128 540.416 155.904 541.728 155.904 543.2C155.904 544.64 156.128 545.952 156.576 547.136C157.056 548.32 157.696 549.344 158.496 550.208C159.328 551.04 160.288 551.68 161.376 552.128C162.496 552.576 163.696 552.8 164.976 552.8ZM195.309 560V533.936H184.989V526.4H215.085V533.936H204.813V560H195.309ZM241.426 541.136H256.93V548.48H241.426V541.136ZM242.098 560H232.594V526.4H258.946V533.744H242.098V560ZM280.054 560.672C277.366 560.672 274.886 560.24 272.614 559.376C270.342 558.512 268.358 557.296 266.662 555.728C264.998 554.128 263.702 552.272 262.774 550.16C261.846 548.048 261.382 545.728 261.382 543.2C261.382 540.672 261.846 538.352 262.774 536.24C263.702 534.128 264.998 532.288 266.662 530.72C268.358 529.12 270.342 527.888 272.614 527.024C274.886 526.16 277.366 525.728 280.054 525.728C282.774 525.728 285.254 526.16 287.494 527.024C289.766 527.888 291.734 529.12 293.398 530.72C295.062 532.288 296.358 534.128 297.286 536.24C298.246 538.352 298.726 540.672 298.726 543.2C298.726 545.728 298.246 548.064 297.286 550.208C296.358 552.32 295.062 554.16 293.398 555.728C291.734 557.296 289.766 558.512 287.494 559.376C285.254 560.24 282.774 560.672 280.054 560.672ZM280.054 552.8C281.334 552.8 282.518 552.576 283.606 552.128C284.726 551.68 285.686 551.04 286.486 550.208C287.318 549.344 287.958 548.32 288.406 547.136C288.886 545.952 289.126 544.64 289.126 543.2C289.126 541.728 288.886 540.416 288.406 539.264C287.958 538.08 287.318 537.072 286.486 536.24C285.686 535.376 284.726 534.72 283.606 534.272C282.518 533.824 281.334 533.6 280.054 533.6C278.774 533.6 277.574 533.824 276.454 534.272C275.366 534.72 274.406 535.376 273.574 536.24C272.774 537.072 272.134 538.08 271.654 539.264C271.206 540.416 270.982 541.728 270.982 543.2C270.982 544.64 271.206 545.952 271.654 547.136C272.134 548.32 272.774 549.344 273.574 550.208C274.406 551.04 275.366 551.68 276.454 552.128C277.574 552.576 278.774 552.8 280.054 552.8ZM319.208 560.672C314.248 560.672 310.376 559.312 307.592 556.592C304.808 553.872 303.416 550.016 303.416 545.024V526.4H312.92V544.736C312.92 547.616 313.48 549.68 314.6 550.928C315.752 552.176 317.32 552.8 319.304 552.8C321.288 552.8 322.84 552.176 323.96 550.928C325.08 549.68 325.64 547.616 325.64 544.736V526.4H335V545.024C335 550.016 333.608 553.872 330.824 556.592C328.04 559.312 324.168 560.672 319.208 560.672ZM341.438 560V526.4H349.262L367.79 548.768H364.094V526.4H373.406V560H365.582L347.054 537.632H350.75V560H341.438ZM380.11 560V526.4H395.998C399.71 526.4 402.974 527.088 405.79 528.464C408.606 529.84 410.798 531.776 412.366 534.272C413.966 536.768 414.766 539.744 414.766 543.2C414.766 546.624 413.966 549.6 412.366 552.128C410.798 554.624 408.606 556.56 405.79 557.936C402.974 559.312 399.71 560 395.998 560H380.11ZM389.614 552.416H395.614C397.534 552.416 399.198 552.064 400.606 551.36C402.046 550.624 403.166 549.568 403.966 548.192C404.766 546.784 405.166 545.12 405.166 543.2C405.166 541.248 404.766 539.584 403.966 538.208C403.166 536.832 402.046 535.792 400.606 535.088C399.198 534.352 397.534 533.984 395.614 533.984H389.614V552.416ZM433.735 560V526.4H443.239V560H433.735ZM450.001 560V526.4H457.825L471.745 549.248H467.617L481.153 526.4H488.977L489.073 560H480.337L480.241 539.696H481.729L471.601 556.688H467.377L456.961 539.696H458.785V560H450.001ZM491.765 560L506.598 526.4H515.958L530.838 560H520.95L509.334 531.056H513.078L501.462 560H491.765ZM499.878 553.472L502.326 546.464H518.742L521.19 553.472H499.878ZM549.863 560.672C547.207 560.672 544.743 560.256 542.471 559.424C540.199 558.56 538.231 557.344 536.567 555.776C534.935 554.208 533.655 552.368 532.727 550.256C531.799 548.112 531.335 545.76 531.335 543.2C531.335 540.64 531.799 538.304 532.727 536.192C533.655 534.048 534.951 532.192 536.615 530.624C538.279 529.056 540.247 527.856 542.519 527.024C544.823 526.16 547.335 525.728 550.055 525.728C553.223 525.728 556.055 526.256 558.551 527.312C561.047 528.368 563.111 529.888 564.743 531.872L558.695 537.344C557.543 536.096 556.295 535.168 554.951 534.56C553.639 533.92 552.167 533.6 550.535 533.6C549.095 533.6 547.783 533.824 546.599 534.272C545.415 534.72 544.407 535.376 543.575 536.24C542.743 537.072 542.087 538.08 541.607 539.264C541.159 540.416 540.935 541.728 540.935 543.2C540.935 544.608 541.159 545.904 541.607 547.088C542.087 548.272 542.743 549.296 543.575 550.16C544.407 550.992 545.399 551.648 546.551 552.128C547.735 552.576 549.031 552.8 550.439 552.8C551.847 552.8 553.223 552.576 554.567 552.128C555.911 551.648 557.271 550.848 558.647 549.728L563.975 556.4C562.055 557.776 559.831 558.832 557.303 559.568C554.775 560.304 552.295 560.672 549.863 560.672ZM555.575 555.152V542.48H563.975V556.4L555.575 555.152ZM578.737 539.408H594.337V546.512H578.737V539.408ZM579.409 552.656H596.977V560H570.001V526.4H596.353V533.744H579.409V552.656Z" fill="#3C3C3C"/>
<g filter="url(#filter0_d_627_195)">
<path d="M299.75 265.125C296.623 265.125 293.623 266.367 291.412 268.579C289.201 270.79 287.958 273.789 287.958 276.917C287.958 280.044 289.201 283.043 291.412 285.255C293.623 287.466 296.623 288.708 299.75 288.708H311.542C314.669 288.708 317.668 287.466 319.88 285.255C322.091 283.043 323.333 280.044 323.333 276.917C323.333 273.789 322.091 270.79 319.88 268.579C317.668 266.367 314.669 265.125 311.542 265.125H299.75ZM382.292 265.125C379.164 265.125 376.165 266.367 373.954 268.579C371.742 270.79 370.5 273.789 370.5 276.917C370.5 280.044 371.742 283.043 373.954 285.255C376.165 287.466 379.164 288.708 382.292 288.708H394.083C397.211 288.708 400.21 287.466 402.421 285.255C404.633 283.043 405.875 280.044 405.875 276.917C405.875 273.789 404.633 270.79 402.421 268.579C400.21 266.367 397.211 265.125 394.083 265.125H382.292ZM311.542 335.875C308.414 335.875 305.415 337.117 303.204 339.329C300.992 341.54 299.75 344.539 299.75 347.667C299.75 350.794 300.992 353.793 303.204 356.005C305.415 358.216 308.414 359.458 311.542 359.458H382.292C385.419 359.458 388.418 358.216 390.63 356.005C392.841 353.793 394.083 350.794 394.083 347.667C394.083 344.539 392.841 341.54 390.63 339.329C388.418 337.117 385.419 335.875 382.292 335.875H311.542Z" fill="#3C3C3C"/>
<path fill-rule="evenodd" clip-rule="evenodd" d="M346.917 418.417C412.042 418.417 464.833 365.625 464.833 300.5C464.833 235.375 412.042 182.583 346.917 182.583C281.791 182.583 229 235.375 229 300.5C229 365.625 281.791 418.417 346.917 418.417ZM346.917 394.833C371.935 394.833 395.929 384.895 413.62 367.204C431.311 349.513 441.25 325.519 441.25 300.5C441.25 275.481 431.311 251.487 413.62 233.796C395.929 216.105 371.935 206.167 346.917 206.167C321.898 206.167 297.904 216.105 280.213 233.796C262.522 251.487 252.583 275.481 252.583 300.5C252.583 325.519 262.522 349.513 280.213 367.204C297.904 384.895 321.898 394.833 346.917 394.833Z" fill="#3C3C3C"/>
</g>
<defs>
<filter id="filter0_d_627_195" x="216" y="169.583" width="257.833" height="257.833" filterUnits="userSpaceOnUse" color-interpolation-filters="sRGB">
<feFlood flood-opacity="0" result="BackgroundImageFix"/>
<feColorMatrix in="SourceAlpha" type="matrix" values="0 0 0 0 0 0 0 0 0 0 0 0 0 0 0 0 0 0 127 0" result="hardAlpha"/>
<feOffset dx="-2" dy="-2"/>
<feGaussianBlur stdDeviation="5.5"/>
<feComposite in2="hardAlpha" operator="out"/>
<feColorMatrix type="matrix" values="0 0 0 0 0 0 0 0 0 0 0 0 0 0 0 0 0 0 0.25 0"/>
<feBlend mode="normal" in2="BackgroundImageFix" result="effect1_dropShadow_627_195"/>
<feBlend mode="normal" in="SourceGraphic" in2="effect1_dropShadow_627_195" result="shape"/>
</filter>
</defs>
</svg>
